<svg width="99" height="20" viewBox="0 0 99 20" fill="none" xmlns="http://www.w3.org/2000/svg">
<path fill-rule="evenodd" clip-rule="evenodd" d="M11.679 1.87379C10.5076 3.04409 8.60963 3.04409 7.43827 1.87379L6.44131 0.877725C5.26996 -0.292575 3.37194 -0.292576 2.20058 0.877724L0.879636 2.19748C-0.293211 3.36927 -0.293212 5.27024 0.879635 6.44203L1.86866 7.43017C3.04151 8.60196 3.04151 10.5029 1.86866 11.6747L0.879636 12.6629C-0.293211 13.8346 -0.293211 15.7356 0.879635 16.9074L2.20058 18.2272C3.37193 19.3975 5.26996 19.3975 6.44131 18.2272L7.40637 17.263C8.57772 16.0927 10.4757 16.0927 11.6471 17.263L12.676 18.2909C13.8473 19.4612 15.7453 19.4612 16.9167 18.2909L18.2376 16.9712C19.4105 15.7994 19.4105 13.8984 18.2376 12.7266L17.2167 11.7066C16.0439 10.5348 16.0439 8.63383 17.2167 7.46204L18.2376 6.44203C19.4105 5.27024 19.4105 3.36927 18.2376 2.19748L16.9167 0.877727C15.7453 -0.292573 13.8473 -0.292575 12.676 0.877725L11.679 1.87379ZM12.376 11.7066C13.5488 10.5348 13.5488 8.63384 12.3759 7.46205L11.679 6.76573C10.5076 5.59543 8.60962 5.59543 7.43827 6.76573L6.77323 7.43017C5.60038 8.60196 5.60038 10.5029 6.77323 11.6747L7.47018 12.371C8.64153 13.5413 10.5396 13.5413 11.7109 12.371L12.376 11.7066Z" fill="#1E1E1E"/>
<path d="M23.6773 16.5843V2.44429H29.4773C30.1306 2.44429 30.7306 2.50429 31.2773 2.62429C31.8373 2.73096 32.3173 2.92429 32.7173 3.20429C33.1306 3.48429 33.4506 3.85762 33.6773 4.32429C33.9039 4.79096 34.0173 5.37096 34.0173 6.06429C34.0173 6.70429 33.8706 7.29096 33.5773 7.82429C33.2839 8.34429 32.8506 8.73762 32.2773 9.00429C33.0506 9.20429 33.6439 9.59096 34.0573 10.1643C34.4706 10.7243 34.6773 11.4576 34.6773 12.3643C34.6773 13.1776 34.5239 13.8576 34.2173 14.4043C33.9239 14.9376 33.5106 15.3643 32.9773 15.6843C32.4573 16.0043 31.8506 16.2376 31.1573 16.3843C30.4639 16.5176 29.7239 16.5843 28.9373 16.5843H23.6773ZM26.1773 14.3043H29.1573C29.5306 14.3043 29.8973 14.2776 30.2573 14.2243C30.6173 14.171 30.9439 14.0776 31.2373 13.9443C31.5306 13.811 31.7573 13.6176 31.9173 13.3643C32.0906 13.0976 32.1773 12.7576 32.1773 12.3443C32.1773 11.971 32.1106 11.6643 31.9773 11.4243C31.8439 11.1843 31.6573 10.9976 31.4173 10.8643C31.1906 10.7176 30.9173 10.6176 30.5973 10.5643C30.2773 10.4976 29.9439 10.4643 29.5973 10.4643H26.1773V14.3043ZM26.1773 8.36429H28.8173C29.2306 8.36429 29.6039 8.32429 29.9373 8.24429C30.2706 8.16429 30.5573 8.04429 30.7973 7.88429C31.0373 7.71096 31.2239 7.50429 31.3573 7.26429C31.4906 7.01096 31.5573 6.70429 31.5573 6.34429C31.5573 5.87762 31.4506 5.53096 31.2373 5.30429C31.0239 5.06429 30.7306 4.91096 30.3573 4.84429C29.9973 4.76429 29.5906 4.72429 29.1373 4.72429H26.1773V8.36429ZM41.3362 16.7243C39.8162 16.7243 38.6495 16.331 37.8362 15.5443C37.0362 14.7576 36.6362 13.5576 36.6362 11.9443V6.04429H39.0762V11.7843C39.0762 12.3443 39.1495 12.831 39.2962 13.2443C39.4562 13.6576 39.7029 13.9776 40.0362 14.2043C40.3829 14.4176 40.8162 14.5243 41.3362 14.5243C41.8962 14.5243 42.3362 14.411 42.6562 14.1843C42.9895 13.9443 43.2229 13.6176 43.3562 13.2043C43.4895 12.791 43.5562 12.3176 43.5562 11.7843V6.04429H45.9962V11.9443C45.9962 13.5976 45.5829 14.811 44.7562 15.5843C43.9429 16.3443 42.8029 16.7243 41.3362 16.7243ZM48.3168 16.5843V6.04429H50.7568V16.5843H48.3168ZM49.5368 4.82429C49.0701 4.82429 48.6968 4.68429 48.4168 4.40429C48.1368 4.12429 47.9968 3.75762 47.9968 3.30429C47.9968 2.86429 48.1435 2.50429 48.4368 2.22429C48.7301 1.93096 49.0968 1.78429 49.5368 1.78429C49.9635 1.78429 50.3301 1.92429 50.6368 2.20429C50.9435 2.48429 51.0968 2.85096 51.0968 3.30429C51.0968 3.75762 50.9501 4.12429 50.6568 4.40429C50.3635 4.68429 49.9901 4.82429 49.5368 4.82429ZM57.4215 16.7243C56.3548 16.7243 55.4748 16.4843 54.7815 16.0043C54.0882 15.511 53.5682 14.8576 53.2215 14.0443C52.8882 13.231 52.7215 12.3243 52.7215 11.3243C52.7215 10.2843 52.9015 9.35762 53.2615 8.54429C53.6215 7.71762 54.1615 7.07096 54.8815 6.60429C55.6015 6.12429 56.5015 5.88429 57.5815 5.88429C57.9815 5.88429 58.3682 5.93096 58.7415 6.02429C59.1282 6.10429 59.4882 6.23762 59.8215 6.42429C60.1682 6.59762 60.4548 6.83096 60.6815 7.12429V2.44429H63.1215V16.5843H60.7615L60.7215 15.2643C60.4682 15.5976 60.1682 15.871 59.8215 16.0843C59.4882 16.2976 59.1148 16.4576 58.7015 16.5643C58.2882 16.671 57.8615 16.7243 57.4215 16.7243ZM57.8815 14.5243C58.5215 14.5243 59.0482 14.3776 59.4615 14.0843C59.8748 13.7776 60.1815 13.3776 60.3815 12.8843C60.5948 12.3776 60.7015 11.8443 60.7015 11.2843C60.7015 10.6976 60.5948 10.1643 60.3815 9.68429C60.1815 9.20429 59.8748 8.81762 59.4615 8.52429C59.0482 8.23096 58.5215 8.08429 57.8815 8.08429C57.2015 8.08429 56.6615 8.23762 56.2615 8.54429C55.8748 8.85096 55.5882 9.25762 55.4015 9.76429C55.2282 10.2576 55.1415 10.791 55.1415 11.3643C55.1415 11.791 55.1882 12.1976 55.2815 12.5843C55.3882 12.9576 55.5482 13.291 55.7615 13.5843C55.9748 13.8776 56.2548 14.111 56.6015 14.2843C56.9482 14.4443 57.3748 14.5243 57.8815 14.5243ZM65.4848 16.5843V2.44429H67.9248V16.5843H65.4848ZM70.2895 16.5843V6.04429H72.5295L72.6895 7.24429C72.9561 6.88429 73.2428 6.61096 73.5495 6.42429C73.8695 6.22429 74.1961 6.08429 74.5295 6.00429C74.8761 5.92429 75.2028 5.88429 75.5095 5.88429C76.1761 5.88429 76.7428 6.01762 77.2095 6.28429C77.6895 6.55096 78.0628 6.95096 78.3295 7.48429C78.5961 7.11096 78.8961 6.81096 79.2295 6.58429C79.5628 6.34429 79.9161 6.17096 80.2895 6.06429C80.6628 5.94429 81.0561 5.88429 81.4695 5.88429C82.2828 5.88429 82.9361 6.05762 83.4295 6.40429C83.9228 6.73762 84.2828 7.20429 84.5095 7.80429C84.7361 8.39096 84.8495 9.06429 84.8495 9.82429V16.5843H82.4095V10.6043C82.4095 10.3376 82.3961 10.0576 82.3695 9.76429C82.3428 9.47096 82.2695 9.19762 82.1495 8.94429C82.0428 8.69096 81.8828 8.48429 81.6695 8.32429C81.4561 8.16429 81.1561 8.08429 80.7695 8.08429C80.3828 8.08429 80.0628 8.17096 79.8095 8.34429C79.5695 8.50429 79.3695 8.72429 79.2095 9.00429C79.0628 9.27096 78.9561 9.57096 78.8895 9.90429C78.8361 10.2243 78.8095 10.5443 78.8095 10.8643V16.5843H76.3695V10.5843C76.3695 10.331 76.3495 10.0643 76.3095 9.78429C76.2828 9.49096 76.2161 9.21762 76.1095 8.96429C76.0161 8.69762 75.8561 8.48429 75.6295 8.32429C75.4161 8.16429 75.1161 8.08429 74.7295 8.08429C74.1695 8.08429 73.7428 8.23762 73.4495 8.54429C73.1695 8.85096 72.9761 9.22429 72.8695 9.66429C72.7761 10.1043 72.7295 10.5243 72.7295 10.9243V16.5843H70.2895ZM91.8259 16.7243C90.7325 16.7243 89.7992 16.4976 89.0259 16.0443C88.2659 15.591 87.6859 14.9643 87.2859 14.1643C86.8992 13.351 86.7059 12.411 86.7059 11.3443C86.7059 10.2776 86.9059 9.33762 87.3059 8.52429C87.7192 7.69762 88.3059 7.05096 89.0659 6.58429C89.8392 6.11762 90.7659 5.88429 91.8459 5.88429C92.6459 5.88429 93.3459 6.03096 93.9459 6.32429C94.5459 6.60429 95.0459 6.99096 95.4459 7.48429C95.8592 7.97762 96.1659 8.53762 96.3659 9.16429C96.5659 9.79096 96.6592 10.451 96.6459 11.1443C96.6325 11.3043 96.6192 11.4643 96.6059 11.6243C96.5925 11.771 96.5725 11.931 96.5459 12.1043H89.1459C89.1859 12.571 89.3059 12.9976 89.5059 13.3843C89.7192 13.771 90.0125 14.0776 90.3859 14.3043C90.7725 14.531 91.2525 14.6443 91.8259 14.6443C92.1592 14.6443 92.4792 14.6043 92.7859 14.5243C93.0925 14.431 93.3592 14.2976 93.5859 14.1243C93.8259 13.951 93.9859 13.731 94.0659 13.4643H96.5059C96.3325 14.2243 96.0125 14.8443 95.5459 15.3243C95.0792 15.8043 94.5192 16.1576 93.8659 16.3843C93.2259 16.611 92.5459 16.7243 91.8259 16.7243ZM89.1859 10.2843H94.2659C94.2659 9.84429 94.1659 9.44429 93.9659 9.08429C93.7659 8.72429 93.4792 8.44429 93.1059 8.24429C92.7459 8.03096 92.3059 7.92429 91.7859 7.92429C91.2259 7.92429 90.7592 8.03762 90.3859 8.26429C90.0125 8.49096 89.7259 8.78429 89.5259 9.14429C89.3259 9.50429 89.2125 9.88429 89.1859 10.2843Z" fill="#1E1E1E"/>
</svg>
