<svg width="798" height="201" viewBox="0 0 798 201" fill="none" xmlns="http://www.w3.org/2000/svg">
<path d="M109.669 93.0945L147.613 93.0944C147.613 53.7422 115.712 21.8408 76.3595 21.8408C74.7381 21.8408 73.1294 21.895 71.535 22.0016C71.0809 21.8964 70.6078 21.8408 70.1218 21.8408H6.86075C3.41577 21.8408 0.623047 24.6335 0.623047 28.0785C0.623047 53.2598 45.6701 75.1122 65.4661 78.5681V58.4511C65.4661 56.3116 67.9827 55.1644 69.5978 56.5677L108.382 90.2694C109.24 91.0154 109.669 92.0549 109.669 93.0945Z" fill="#1E1E1E"/>
<path d="M109.669 93.0945C109.669 94.134 109.24 95.1735 108.382 95.9195L69.5978 129.621C67.9827 131.025 65.4661 129.877 65.4661 127.738V110C65.4661 108.758 64.3568 107.814 63.1445 108.085C42.3659 112.715 0.623047 133.87 0.623047 158.11C0.623047 161.555 3.41577 164.348 6.86075 164.348H70.1218C70.6078 164.348 71.0809 164.292 71.535 164.187C73.1294 164.294 74.7381 164.348 76.3595 164.348C115.712 164.348 147.613 132.447 147.613 93.0944L109.669 93.0945Z" fill="#1E1E1E"/>
<path d="M161.041 164.931V69.6638H191.37V164.931H161.041Z" fill="#1E1E1E"/>
<path d="M303.088 69.6638L270.402 164.931H235.669L203.045 69.6638H234.987L252.539 135.284H253.532L271.146 69.6638H303.088Z" fill="#1E1E1E"/>
<path d="M356.179 166.729C346.214 166.729 337.614 164.765 330.378 160.837C323.183 156.868 317.642 151.224 313.756 143.905C309.91 136.545 307.988 127.8 307.988 117.669C307.988 107.828 309.931 99.228 313.818 91.8679C317.704 84.4666 323.183 78.7192 330.254 74.6257C337.324 70.4908 345.656 68.4234 355.249 68.4234C362.03 68.4234 368.232 69.4778 373.856 71.5865C379.479 73.6953 384.337 76.8171 388.431 80.952C392.524 85.0868 395.708 90.1933 397.982 96.2715C400.257 102.308 401.394 109.234 401.394 117.049V124.616H318.593V107.001H373.173C373.132 103.776 372.367 100.903 370.879 98.3803C369.39 95.8581 367.343 93.894 364.738 92.4882C362.175 91.041 359.218 90.3174 355.869 90.3174C352.478 90.3174 349.439 91.0823 346.752 92.6122C344.064 94.1008 341.935 96.1475 340.363 98.7524C338.792 101.316 337.965 104.231 337.882 107.498V125.422C337.882 129.309 338.647 132.72 340.177 135.656C341.707 138.55 343.878 140.804 346.69 142.416C349.501 144.029 352.851 144.835 356.737 144.835C359.425 144.835 361.865 144.463 364.056 143.719C366.247 142.975 368.129 141.879 369.7 140.432C371.271 138.984 372.45 137.206 373.235 135.098L401.084 135.904C399.926 142.148 397.383 147.585 393.455 152.216C389.568 156.806 384.461 160.382 378.135 162.946C371.809 165.468 364.49 166.729 356.179 166.729Z" fill="#1E1E1E"/>
<path d="M500.056 98.7524L472.208 99.4967C471.918 97.512 471.133 95.7547 469.851 94.2248C468.569 92.6536 466.895 91.4338 464.827 90.5655C462.801 89.6558 460.444 89.201 457.757 89.201C454.242 89.201 451.244 89.9039 448.763 91.3097C446.324 92.7156 445.125 94.6176 445.166 97.0158C445.125 98.8765 445.869 100.489 447.399 101.854C448.97 103.218 451.761 104.314 455.772 105.141L474.131 108.614C483.641 110.433 490.711 113.452 495.342 117.669C500.015 121.887 502.372 127.469 502.413 134.415C502.372 140.948 500.428 146.634 496.583 151.472C492.779 156.309 487.569 160.072 480.953 162.76C474.337 165.406 466.771 166.729 458.253 166.729C444.649 166.729 433.919 163.938 426.063 158.356C418.248 152.733 413.783 145.207 412.666 135.78L442.623 135.036C443.285 138.509 445.001 141.155 447.771 142.975C450.541 144.794 454.077 145.704 458.377 145.704C462.264 145.704 465.427 144.98 467.866 143.533C470.306 142.086 471.546 140.163 471.588 137.765C471.546 135.615 470.595 133.899 468.735 132.617C466.874 131.294 463.959 130.26 459.989 129.516L443.367 126.353C433.816 124.616 426.704 121.411 422.032 116.739C417.359 112.025 415.044 106.03 415.085 98.7524C415.044 92.3848 416.739 86.9475 420.171 82.4405C423.603 77.8922 428.482 74.4189 434.808 72.0207C441.135 69.6225 448.598 68.4234 457.198 68.4234C470.099 68.4234 480.271 71.1317 487.714 76.5484C495.156 81.9237 499.27 89.325 500.056 98.7524Z" fill="#1E1E1E"/>
<path d="M571.118 69.6638V91.992H511.019V69.6638H571.118ZM523.609 46.8395H553.938V134.974C553.938 136.834 554.228 138.344 554.807 139.501C555.427 140.618 556.316 141.424 557.473 141.92C558.631 142.375 560.016 142.602 561.629 142.602C562.787 142.602 564.007 142.499 565.288 142.292C566.611 142.044 567.604 141.837 568.265 141.672L572.855 163.566C571.408 163.98 569.361 164.496 566.715 165.117C564.11 165.737 560.988 166.13 557.349 166.295C550.238 166.626 544.139 165.799 539.053 163.814C534.008 161.788 530.142 158.646 527.455 154.387C524.808 150.128 523.526 144.773 523.609 138.323V46.8395Z" fill="#1E1E1E"/>
<path d="M586.593 164.931V69.6638H616.922V164.931H586.593Z" fill="#1E1E1E"/>
<path d="M690.372 69.6638V91.992H629.094V69.6638H690.372ZM641.871 164.931V64.8261C641.871 57.4661 643.256 51.3672 646.026 46.5294C648.797 41.6503 652.642 38.0116 657.562 35.6134C662.483 33.1739 668.168 31.9541 674.619 31.9541C678.836 31.9541 682.806 32.2849 686.527 32.9465C690.29 33.5667 693.081 34.1249 694.9 34.6211L690.062 56.8252C688.946 56.453 687.581 56.1429 685.969 55.8948C684.398 55.6467 682.909 55.5227 681.503 55.5227C677.947 55.5227 675.508 56.3083 674.185 57.8796C672.861 59.4508 672.2 61.6009 672.2 64.3299V164.931H641.871Z" fill="#1E1E1E"/>
<path d="M723.508 200.656C719.869 200.656 716.437 200.366 713.212 199.787C709.987 199.25 707.217 198.526 704.901 197.616L711.6 175.598C714.577 176.591 717.264 177.17 719.663 177.335C722.102 177.5 724.19 177.108 725.927 176.157C727.705 175.247 729.069 173.614 730.02 171.257L731.199 168.404L697.334 69.6638H729.09L746.642 137.641H747.635L765.435 69.6638H797.377L761.466 174.048C759.729 179.258 757.269 183.847 754.085 187.817C750.943 191.828 746.87 194.97 741.867 197.244C736.905 199.519 730.785 200.656 723.508 200.656Z" fill="#1E1E1E"/>
<path d="M143.389 32.9653C161.338 32.9653 175.889 18.4146 175.889 0.465332C175.889 18.4146 190.44 32.9653 208.389 32.9653C190.44 32.9653 175.889 47.5161 175.889 65.4653C175.889 47.5161 161.338 32.9653 143.389 32.9653Z" fill="#1E1E1E"/>
<path d="M569.076 33.2026C587.025 33.2026 601.576 18.6519 601.576 0.702637C601.576 18.6519 616.126 33.2026 634.076 33.2026C616.126 33.2026 601.576 47.7534 601.576 65.7026C601.576 47.7534 587.025 33.2026 569.076 33.2026Z" fill="#1E1E1E"/>
</svg>
