<svg width="608" height="98" viewBox="0 0 608 98" fill="none" xmlns="http://www.w3.org/2000/svg">
<path d="M123.575 84.5702V12.5702H135.95L135.815 29.9402L133.79 46.5902H135.995L140.63 29.5352L146.75 12.5702H159.44L147.785 42.8102L160.16 84.5702H148.325L140.09 55.8152L135.455 66.3452V84.5702H123.575ZM166.684 84.5702V12.5702H195.124V22.8302H178.339V42.9002H194.224V53.1602H178.339V74.3102H195.124V84.5702H166.684ZM202.849 84.5702V12.5702H214.504V74.3102H231.379V84.5702H202.849ZM239.093 84.5702L229.373 12.5702H241.388L246.338 49.6502L247.418 74.3102H249.893L250.973 49.6502L255.923 12.5702H267.938L258.218 84.5702H239.093ZM274.828 84.5702V12.5702H286.483V84.5702H274.828ZM296.052 84.5702V12.5702H313.242L318.327 35.4752L323.547 74.3102H325.797L323.682 42.0902L322.737 12.5702H333.987V84.5702H315.987L310.812 60.4502L306.762 22.7402H304.332L306.312 57.1202L307.302 84.5702H296.052ZM364.867 84.5702V12.5702H393.307V22.8302H376.522V42.9002H392.407V53.1602H376.522V74.3102H393.307V84.5702H364.867ZM401.032 84.5702V12.5702H420.067L425.602 40.3802L427.177 74.2202H429.382L430.867 40.3802L436.492 12.5702H455.437V84.5702H443.782V62.7002L446.032 22.8302H443.692L439.642 63.4652L434.647 84.4802H421.777L416.872 63.4652L412.777 22.8302H410.527L412.687 62.7002V84.5702H401.032ZM464.971 84.5702V12.5702H484.006L489.541 40.3802L491.116 74.2202H493.321L494.806 40.3802L500.431 12.5702H519.376V84.5702H507.721V62.7002L509.971 22.8302H507.631L503.581 63.4652L498.586 84.4802H485.716L480.811 63.4652L476.716 22.8302H474.466L476.626 62.7002V84.5702H464.971ZM528.909 84.5702V12.5702H544.704C550.764 12.5702 555.129 13.8152 557.799 16.3052C560.499 18.7952 561.954 22.9052 562.164 28.6352C562.224 30.5552 562.269 32.2952 562.299 33.8552C562.329 35.3852 562.329 36.9152 562.299 38.4452C562.269 39.9452 562.224 41.5952 562.164 43.3952C562.044 47.0552 561.429 50.0402 560.319 52.3502C559.209 54.6302 557.469 56.3552 555.099 57.5252L563.244 84.5702H550.914L544.164 59.4602H540.564V84.5702H528.909ZM540.564 49.2002H544.659C546.609 49.2002 548.049 48.7652 548.979 47.8952C549.939 46.9952 550.464 45.6902 550.554 43.9802C550.644 42.3002 550.704 40.5602 550.734 38.7602C550.764 36.9302 550.764 35.1152 550.734 33.3152C550.704 31.4852 550.644 29.7302 550.554 28.0502C550.464 26.3402 549.939 25.0502 548.979 24.1802C548.049 23.2802 546.624 22.8302 544.704 22.8302H540.564V49.2002ZM568 84.5702L577.405 12.5702H596.125L605.53 84.5702H593.605L591.985 68.0552H581.545L579.925 84.5702H568ZM582.625 57.7952H590.905L589.33 41.9552L588.025 22.8302H585.505L584.2 41.9552L582.625 57.7952Z" fill="#1E1E1E"/>
<path fill-rule="evenodd" clip-rule="evenodd" d="M33.9201 0.102821C30.4349 0.102821 27.2012 1.91734 25.3851 4.89197L1.30124 44.3398C-0.326088 47.0053 1.5923 50.4241 4.71526 50.4241H26.3354L51.8701 92.2484C53.6862 95.223 56.92 97.0376 60.4052 97.0376L100.699 97.0376C103.808 97.0376 105.729 93.6457 104.129 90.9796L80.4841 51.5713C78.6769 48.5592 75.4218 46.7162 71.9092 46.7162H53.1967C53.4883 46.356 53.7567 45.973 53.9991 45.5691L77.644 6.1608C79.2437 3.4947 77.3232 0.102814 74.2141 0.102814L33.9201 0.102821Z" fill="#1E1E1E"/>
</svg>
