<svg width="871" height="101" viewBox="0 0 871 101" fill="none" xmlns="http://www.w3.org/2000/svg">
<path fill-rule="evenodd" clip-rule="evenodd" d="M0.869629 56.8278V48.0277C26.3737 46.9781 46.862 26.4898 47.9117 0.985703H56.7117V45.1436H103.091V53.9438C77.5873 54.9934 57.099 75.4817 56.0494 100.986H47.2493V56.8278H0.869629Z" fill="#1E1E1E"/>
<path d="M125.727 82.9857V18.5857H138.055L165.471 64.0337H158.939L185.895 18.5857H198.131L198.315 82.9857H184.331L184.239 40.0217H186.815L165.287 76.1777H158.571L136.583 40.0217H139.711V82.9857H125.727ZM224.542 44.5297H255.546V56.1217H224.542V44.5297ZM225.646 71.0257H260.698V82.9857H210.834V18.5857H259.502V30.5457H225.646V71.0257ZM283.137 82.9857V30.7297H262.529V18.5857H318.649V30.7297H298.041V82.9857H283.137ZM323.908 82.9857V18.5857H351.784C357.55 18.5857 362.518 19.5364 366.688 21.4377C370.859 23.2777 374.079 25.9457 376.348 29.4417C378.618 32.9377 379.752 37.1084 379.752 41.9537C379.752 46.7377 378.618 50.8777 376.348 54.3737C374.079 57.8084 370.859 60.4457 366.688 62.2857C362.518 64.1257 357.55 65.0457 351.784 65.0457H332.188L338.812 58.5137V82.9857H323.908ZM364.848 82.9857L348.748 59.6177H364.664L380.948 82.9857H364.848ZM338.812 60.1697L332.188 53.1777H350.956C355.556 53.1777 358.991 52.1964 361.26 50.2337C363.53 48.2097 364.664 45.4497 364.664 41.9537C364.664 38.3964 363.53 35.6364 361.26 33.6737C358.991 31.711 355.556 30.7297 350.956 30.7297H332.188L338.812 23.6457V60.1697ZM388.801 82.9857V18.5857H403.705V82.9857H388.801ZM408.868 82.9857L436.56 44.8057V55.6617L410.064 18.5857H426.992L445.3 44.4377L438.216 44.5297L456.248 18.5857H472.44L446.128 55.0177V44.3457L474.004 82.9857H456.8L437.848 55.6617H444.656L425.98 82.9857H408.868ZM531.282 83.5377C526.437 83.5377 521.959 82.7404 517.85 81.1457C513.741 79.4897 510.183 77.1897 507.178 74.2457C504.173 71.3017 501.811 67.8364 500.094 63.8497C498.438 59.863 497.61 55.5084 497.61 50.7857C497.61 46.063 498.438 41.7084 500.094 37.7217C501.811 33.735 504.173 30.2697 507.178 27.3257C510.245 24.3817 513.833 22.1124 517.942 20.5177C522.051 18.8617 526.529 18.0337 531.374 18.0337C536.035 18.0337 540.421 18.831 544.53 20.4257C548.639 21.959 552.105 24.2897 554.926 27.4177L550.602 31.7417C547.965 29.043 545.051 27.111 541.862 25.9457C538.673 24.719 535.238 24.1057 531.558 24.1057C527.694 24.1057 524.106 24.7804 520.794 26.1297C517.482 27.4177 514.599 29.2884 512.146 31.7417C509.693 34.1337 507.761 36.955 506.35 40.2057C505.001 43.395 504.326 46.9217 504.326 50.7857C504.326 54.6497 505.001 58.207 506.35 61.4577C507.761 64.647 509.693 67.4684 512.146 69.9217C514.599 72.3137 517.482 74.1844 520.794 75.5337C524.106 76.8217 527.694 77.4657 531.558 77.4657C535.238 77.4657 538.673 76.8524 541.862 75.6257C545.051 74.399 547.965 72.4364 550.602 69.7377L554.926 74.0617C552.105 77.1897 548.639 79.551 544.53 81.1457C540.421 82.7404 536.005 83.5377 531.282 83.5377ZM554.758 82.9857L584.198 18.5857H590.914L620.354 82.9857H613.178L586.13 22.5417H588.89L561.842 82.9857H554.758ZM566.35 65.7817L568.374 60.2617H605.818L607.842 65.7817H566.35ZM628.247 82.9857V18.5857H652.351C657.81 18.5857 662.502 19.475 666.427 21.2537C670.352 22.971 673.358 25.4857 675.443 28.7977C677.59 32.0484 678.663 36.0044 678.663 40.6657C678.663 45.2044 677.59 49.1297 675.443 52.4417C673.358 55.6924 670.352 58.207 666.427 59.9857C662.502 61.7644 657.81 62.6537 652.351 62.6537H632.019L635.055 59.4337V82.9857H628.247ZM635.055 59.9857L632.019 56.6737H652.167C658.607 56.6737 663.483 55.2937 666.795 52.5337C670.168 49.7124 671.855 45.7564 671.855 40.6657C671.855 35.5137 670.168 31.527 666.795 28.7057C663.483 25.8844 658.607 24.4737 652.167 24.4737H632.019L635.055 21.2537V59.9857ZM690.624 82.9857V18.5857H697.432V82.9857H690.624ZM728.138 82.9857V24.4737H705.506V18.5857H757.578V24.4737H734.946V82.9857H728.138ZM752.155 82.9857L781.595 18.5857H788.311L817.751 82.9857H810.575L783.527 22.5417H786.287L759.239 82.9857H752.155ZM763.747 65.7817L765.771 60.2617H803.215L805.239 65.7817H763.747ZM825.645 82.9857V18.5857H832.453V77.0977H868.517V82.9857H825.645Z" fill="#1E1E1E"/>
</svg>
