<svg width="504" height="129" viewBox="0 0 504 129" fill="none" xmlns="http://www.w3.org/2000/svg">
<path d="M0.985662 42.3288C1.54871 26.8156 10.0116 13.5802 22.2181 6.12311L117.074 83.4736C129.368 95.1198 123.263 115.925 106.482 118.98L97.0824 120.691L0.985662 42.3288Z" fill="#1E1E1E"/>
<path d="M1.99617 72.5772C1.31697 75.7692 0.95575 79.1249 0.95575 82.6254C0.95575 111.555 27.1599 133.42 55.6222 128.239L67.5841 126.061L1.99617 72.5772Z" fill="#1E1E1E"/>
<path d="M113.282 45.2398L109.802 48.1193L50.7921 -0.000488281C51.4643 0.0845701 52.1383 0.185208 52.8138 0.301719L103.651 9.07069C120.994 12.0623 126.841 34.0196 113.282 45.2398Z" fill="#1E1E1E"/>
<path d="M162.404 76.7251H178.121C178.431 79.364 179.634 81.77 181.73 83.9432C183.903 86.0388 186.736 87.7075 190.229 88.9493C193.721 90.1135 197.641 90.6956 201.987 90.6956C205.946 90.6956 209.205 90.2687 211.767 89.415C214.328 88.5612 216.229 87.3582 217.471 85.8059C218.713 84.2536 219.334 82.3909 219.334 80.2177C219.334 78.1221 218.558 76.531 217.006 75.4444C215.453 74.2802 213.008 73.3489 209.671 72.6503C206.334 71.8742 201.948 71.0981 196.515 70.3219C192.247 69.701 188.211 68.8473 184.408 67.7607C180.605 66.5965 177.228 65.1218 174.279 63.3367C171.407 61.5515 169.118 59.3783 167.41 56.8171C165.78 54.1782 164.965 51.0736 164.965 47.5034C164.965 43.0794 166.207 39.1987 168.691 35.8613C171.252 32.5239 175.016 29.9238 179.984 28.0611C184.951 26.1983 191.044 25.267 198.262 25.267C209.128 25.267 217.471 27.5954 223.292 32.2522C229.191 36.8315 232.063 43.157 231.907 51.2289H216.773C216.462 46.6496 214.522 43.351 210.952 41.3331C207.459 39.3151 203.035 38.3061 197.68 38.3061C192.712 38.3061 188.599 39.0435 185.339 40.5181C182.157 41.9928 180.566 44.5152 180.566 48.0855C180.566 49.4826 180.954 50.7244 181.73 51.811C182.506 52.82 183.826 53.7125 185.688 54.4887C187.551 55.2648 190.074 56.0021 193.256 56.7007C196.438 57.3992 200.396 58.0977 205.131 58.7962C209.555 59.4171 213.552 60.2709 217.122 61.3575C220.77 62.3665 223.874 63.7247 226.436 65.4322C229.075 67.0621 231.093 69.1577 232.49 71.719C233.887 74.2802 234.585 77.4236 234.585 81.1491C234.585 85.7283 233.382 89.7254 230.976 93.1405C228.648 96.4779 225 99.0779 220.033 100.941C215.143 102.803 208.778 103.735 200.939 103.735C195.351 103.735 190.423 103.153 186.154 101.988C181.885 100.747 178.199 99.1167 175.094 97.0988C171.989 95.0808 169.467 92.8688 167.527 90.4628C165.586 88.0567 164.189 85.6507 163.335 83.2447C162.559 80.8386 162.249 78.6654 162.404 76.7251Z" fill="#1E1E1E"/>
<path d="M336.143 74.9788C335.445 81.0327 333.311 86.194 329.74 90.4628C326.17 94.7315 321.319 97.9913 315.188 100.242C309.056 102.493 301.76 103.618 293.3 103.618C286.238 103.618 279.757 102.803 273.858 101.174C268.037 99.5436 262.992 97.0988 258.723 93.839C254.532 90.5792 251.272 86.5433 248.944 81.7312C246.616 76.8415 245.451 71.1369 245.451 64.6173C245.451 58.0977 246.616 52.3931 248.944 47.5034C251.272 42.6137 254.532 38.539 258.723 35.2792C262.992 31.9418 268.037 29.4581 273.858 27.8282C279.757 26.1207 286.238 25.267 293.3 25.267C301.76 25.267 309.056 26.4312 315.188 28.7596C321.397 31.088 326.286 34.4254 329.857 38.7718C333.427 43.0406 335.523 48.2407 336.143 54.3722H320.776C319.767 51.1124 318.059 48.3183 315.653 45.9899C313.325 43.5839 310.298 41.76 306.572 40.5181C302.847 39.2763 298.423 38.6554 293.3 38.6554C286.936 38.6554 281.348 39.6644 276.536 41.6823C271.724 43.6227 267.998 46.5332 265.359 50.4139C262.721 54.217 261.401 58.9515 261.401 64.6173C261.401 70.2055 262.721 74.9012 265.359 78.7042C267.998 82.5073 271.724 85.4179 276.536 87.4358C281.348 89.3762 286.936 90.3463 293.3 90.3463C298.423 90.3463 302.808 89.7254 306.456 88.4836C310.182 87.2418 313.209 85.4567 315.537 83.1282C317.943 80.7998 319.689 78.0833 320.776 74.9788H336.143Z" fill="#1E1E1E"/>
<path d="M353.463 26.7804H368.947V102.105H353.463V26.7804Z" fill="#1E1E1E"/>
<path d="M400.755 85.6895V72.7668H450.584V85.6895H400.755ZM382.012 102.105L417.404 26.7804H434.168L469.909 102.105H453.028L422.06 34.2314H429.511L398.776 102.105H382.012Z" fill="#1E1E1E"/>
<path d="M470.674 33.1578V28.8502H487.284V33.1578H470.674ZM464.426 38.6296L476.224 13.5214H481.812L493.726 38.6296H488.099L477.776 16.0051H480.26L470.015 38.6296H464.426Z" fill="#1E1E1E"/>
<path d="M498.113 13.5214H503.275V38.6296H498.113V13.5214Z" fill="#1E1E1E"/>
</svg>
