<svg width="973" height="161" viewBox="0 0 973 161" fill="none" xmlns="http://www.w3.org/2000/svg">
<path d="M80.7314 0.0158691V16.4543H31.2388C6.31545 15.394 -11.7226 47.023 9.14456 70.3658C30.0117 93.7085 37.0724 101.298 37.0724 101.298H65.8838L23.8152 54.6343C19.2902 49.6851 23.6386 38.3725 31.2388 38.3725H115.199L80.7314 0.0158691Z" fill="#1E1E1E"/>
<path d="M43.8008 160.016L43.8008 143.577L93.2934 143.577C118.217 144.638 136.255 113.009 115.388 89.666C94.5206 66.3232 87.4599 58.7333 87.4599 58.7333L58.6484 58.7333L100.717 105.397C105.242 110.347 100.894 121.659 93.2934 121.659L9.33322 121.659L43.8008 160.016Z" fill="#1E1E1E"/>
<path d="M199.252 145.176C187.492 145.176 178.132 142.416 171.172 136.896C164.212 131.376 160.252 124.056 159.292 114.936H178.912C179.632 119.136 181.732 122.556 185.212 125.196C188.812 127.836 193.552 129.156 199.432 129.156C205.072 129.156 209.392 128.016 212.392 125.736C215.512 123.336 217.072 120.576 217.072 117.456C217.072 112.896 215.212 109.776 211.492 108.096C207.892 106.416 202.552 105.156 195.472 104.316C189.352 103.596 183.772 102.216 178.732 100.176C173.812 98.0159 169.912 95.1359 167.032 91.5359C164.152 87.8159 162.712 83.1959 162.712 77.6759C162.712 69.8759 165.772 63.5759 171.892 58.7759C178.012 53.9759 186.532 51.5759 197.452 51.5759C208.372 51.5759 216.832 54.0359 222.832 58.9559C228.832 63.8759 232.312 70.5959 233.272 79.1159H214.912C214.432 75.5159 212.572 72.6959 209.332 70.6559C206.092 68.4959 202.072 67.4159 197.272 67.4159C192.352 67.4159 188.452 68.3759 185.572 70.2959C182.692 72.0959 181.252 74.4959 181.252 77.4959C181.252 83.9759 188.212 87.9359 202.132 89.3759C208.732 90.0959 214.612 91.3559 219.772 93.1559C224.932 94.8359 229.012 97.5359 232.012 101.256C235.012 104.856 236.512 109.956 236.512 116.556C236.632 121.956 235.072 126.816 231.832 131.136C228.712 135.456 224.332 138.876 218.692 141.396C213.172 143.916 206.692 145.176 199.252 145.176ZM280.542 145.176C269.742 145.176 261.522 141.876 255.882 135.276C250.362 128.556 247.602 118.836 247.602 106.116V53.7359H266.682V103.776C266.682 111.096 268.242 116.856 271.362 121.056C274.602 125.136 279.522 127.176 286.122 127.176C292.722 127.176 298.242 124.956 302.682 120.516C307.122 116.076 309.342 109.656 309.342 101.256V53.7359H328.422V143.016H311.862L310.242 129.696H309.342C306.942 134.016 303.222 137.676 298.182 140.676C293.142 143.676 287.262 145.176 280.542 145.176ZM383.252 145.176C376.652 145.176 371.072 143.856 366.512 141.216C362.072 138.456 358.652 134.676 356.252 129.876H355.172L353.552 143.016H337.172V13.4159H356.252V65.2559C358.412 61.6559 361.832 58.4759 366.512 55.7159C371.192 52.9559 376.772 51.5759 383.252 51.5759C390.692 51.5759 397.352 53.3759 403.232 56.9759C409.112 60.4559 413.732 65.6759 417.092 72.6359C420.572 79.5959 422.312 88.1759 422.312 98.3759C422.312 108.576 420.572 117.156 417.092 124.116C413.732 131.076 409.112 136.356 403.232 139.956C397.352 143.436 390.692 145.176 383.252 145.176ZM379.292 126.996C386.132 126.996 391.772 124.656 396.212 119.976C400.772 115.176 403.052 108.036 403.052 98.5559C403.052 88.9559 400.772 81.7559 396.212 76.9559C391.772 72.1559 386.132 69.7559 379.292 69.7559C372.452 69.7559 366.752 72.1559 362.192 76.9559C357.752 81.6359 355.532 88.7759 355.532 98.3759C355.532 107.856 357.752 114.996 362.192 119.796C366.752 124.596 372.452 126.996 379.292 126.996ZM469.041 145.176C457.281 145.176 447.921 142.416 440.961 136.896C434.001 131.376 430.041 124.056 429.081 114.936H448.701C449.421 119.136 451.521 122.556 455.001 125.196C458.601 127.836 463.341 129.156 469.221 129.156C474.861 129.156 479.181 128.016 482.181 125.736C485.301 123.336 486.861 120.576 486.861 117.456C486.861 112.896 485.001 109.776 481.281 108.096C477.681 106.416 472.341 105.156 465.261 104.316C459.141 103.596 453.561 102.216 448.521 100.176C443.601 98.0159 439.701 95.1359 436.821 91.5359C433.941 87.8159 432.501 83.1959 432.501 77.6759C432.501 69.8759 435.561 63.5759 441.681 58.7759C447.801 53.9759 456.321 51.5759 467.241 51.5759C478.161 51.5759 486.621 54.0359 492.621 58.9559C498.621 63.8759 502.101 70.5959 503.061 79.1159H484.701C484.221 75.5159 482.361 72.6959 479.121 70.6559C475.881 68.4959 471.861 67.4159 467.061 67.4159C462.141 67.4159 458.241 68.3759 455.361 70.2959C452.481 72.0959 451.041 74.4959 451.041 77.4959C451.041 83.9759 458.001 87.9359 471.921 89.3759C478.521 90.0959 484.401 91.3559 489.561 93.1559C494.721 94.8359 498.801 97.5359 501.801 101.256C504.801 104.856 506.301 109.956 506.301 116.556C506.421 121.956 504.861 126.816 501.621 131.136C498.501 135.456 494.121 138.876 488.481 141.396C482.961 143.916 476.481 145.176 469.041 145.176ZM567.971 143.016C559.211 143.016 552.251 140.916 547.091 136.716C541.931 132.396 539.351 124.776 539.351 113.856V69.9359H516.851V53.7359H530.171C536.291 53.7359 539.891 50.7359 540.971 44.7359L543.671 30.3359H558.431V53.7359H593.711V69.9359H558.431V113.496C558.431 118.176 559.451 121.476 561.491 123.396C563.651 125.196 567.311 126.096 572.471 126.096H593.351V143.016H567.971ZM608.041 143.016V126.456H629.821V76.2359C629.821 72.2759 627.901 70.2959 624.061 70.2959H609.841V53.7359H631.261C636.181 53.7359 640.201 55.1759 643.321 58.0559C646.441 60.8159 648.001 64.7159 648.001 69.7559V71.9159H648.901C650.221 65.1959 653.041 60.1559 657.361 56.7959C661.801 53.3159 668.221 51.5759 676.621 51.5759H690.481V71.7359H671.041C663.961 71.7359 658.501 74.1959 654.661 79.1159C650.821 84.0359 648.901 89.9159 648.901 96.7559V126.456H676.621V143.016H608.041ZM730.19 145.176C719.39 145.176 711.17 141.876 705.53 135.276C700.01 128.556 697.25 118.836 697.25 106.116V53.7359H716.33V103.776C716.33 111.096 717.89 116.856 721.01 121.056C724.25 125.136 729.17 127.176 735.77 127.176C742.37 127.176 747.89 124.956 752.33 120.516C756.77 116.076 758.99 109.656 758.99 101.256V53.7359H778.07V143.016H761.51L759.89 129.696H758.99C756.59 134.016 752.87 137.676 747.83 140.676C742.79 143.676 736.91 145.176 730.19 145.176ZM829.3 145.176C821.02 145.176 813.58 143.256 806.98 139.416C800.5 135.576 795.4 130.176 791.68 123.216C787.96 116.136 786.1 107.856 786.1 98.3759C786.1 88.8959 787.96 80.6759 791.68 73.7159C795.52 66.7559 800.68 61.3559 807.16 57.5159C813.64 53.5559 821.02 51.5759 829.3 51.5759C840.7 51.5759 849.88 54.4559 856.84 60.2159C863.92 65.8559 868.42 73.6559 870.34 83.6159H850.36C849.16 79.2959 846.7 75.8759 842.98 73.3559C839.38 70.8359 834.76 69.5759 829.12 69.5759C825.04 69.5759 821.14 70.6559 817.42 72.8159C813.82 74.9759 810.88 78.2159 808.6 82.5359C806.44 86.7359 805.36 92.0159 805.36 98.3759C805.36 104.616 806.44 109.896 808.6 114.216C810.88 118.536 813.82 121.836 817.42 124.116C821.14 126.276 825.04 127.356 829.12 127.356C834.88 127.356 839.5 126.096 842.98 123.576C846.46 121.056 848.92 117.576 850.36 113.136H870.34C867.94 122.976 863.26 130.776 856.3 136.536C849.34 142.296 840.34 145.176 829.3 145.176ZM927.69 143.016C918.93 143.016 911.97 140.916 906.81 136.716C901.65 132.396 899.07 124.776 899.07 113.856V69.9359H876.57V53.7359H889.89C896.01 53.7359 899.61 50.7359 900.69 44.7359L903.39 30.3359H918.15V53.7359H953.43V69.9359H918.15V113.496C918.15 118.176 919.17 121.476 921.21 123.396C923.37 125.196 927.03 126.096 932.19 126.096H953.07V143.016H927.69Z" fill="#1E1E1E"/>
</svg>
