<svg width="259" height="65" viewBox="0 0 259 65" fill="none" xmlns="http://www.w3.org/2000/svg">
<path d="M24.9552 1.77295C25.7534 0.841189 27.1947 0.841191 27.9929 1.77295L37.7562 13.1695C38.3977 13.9184 38.3977 15.023 37.7562 15.7719L27.9929 27.1685C27.1947 28.1002 25.7534 28.1002 24.9552 27.1685L15.1919 15.7719C14.5504 15.023 14.5504 13.9184 15.1919 13.1695L24.9552 1.77295Z" fill="#1E1E1E"/>
<path fill-rule="evenodd" clip-rule="evenodd" d="M8.55279 21.552H2.86072C1.30211 21.552 0.342479 23.2558 1.15038 24.5887L24.7638 63.5459C25.5423 64.8303 27.4059 64.8303 28.1844 63.5459L51.7978 24.5887C52.6057 23.2558 51.6461 21.552 50.0875 21.552H44.3954L27.993 40.6985C27.1947 41.6302 25.7535 41.6302 24.9552 40.6985L8.55279 21.552Z" fill="#1E1E1E"/>
<path d="M83.4666 42.0625L93.8266 12.5505H102.003L87.2746 52.2545H79.3226L64.6506 12.5505H73.1066L83.4666 42.0625ZM100.321 44.7505C100.321 39.8225 103.961 37.0785 108.553 36.4065L115.329 35.3985C116.897 35.1745 117.401 34.3905 117.401 33.4385C117.401 31.4785 115.889 29.8545 112.753 29.8545C109.505 29.8545 107.713 31.9265 107.489 34.3345L100.881 32.9345C101.329 28.6225 105.305 23.8625 112.697 23.8625C121.433 23.8625 124.681 28.7905 124.681 34.3345V47.8865C124.681 49.3425 124.849 51.3025 125.017 52.2545H118.185C118.017 51.5265 117.905 50.0145 117.905 48.9505C116.505 51.1345 113.873 53.0385 109.785 53.0385C103.905 53.0385 100.321 49.0625 100.321 44.7505ZM111.353 47.4945C114.489 47.4945 117.401 45.9825 117.401 41.1105V39.8785L111.185 40.8305C109.281 41.1105 107.769 42.1745 107.769 44.3025C107.769 45.9265 108.945 47.4945 111.353 47.4945ZM140.089 16.4705V24.7025H145.633V31.3105H140.089V42.8465C140.089 45.2545 141.209 46.0385 143.337 46.0385C144.233 46.0385 145.241 45.9265 145.633 45.8145V51.9745C144.961 52.2545 143.617 52.6465 141.433 52.6465C136.057 52.6465 132.697 49.4545 132.697 44.1345V31.3105H127.713V24.7025H129.113C132.025 24.7025 133.369 22.7985 133.369 20.3345V16.4705H140.089ZM155.998 35.3425H168.318C168.206 32.5985 166.414 29.9105 162.158 29.9105C158.294 29.9105 156.166 32.8225 155.998 35.3425ZM169.046 42.5105L175.262 44.3585C173.862 49.1185 169.494 53.0945 162.718 53.0945C155.158 53.0945 148.494 47.6625 148.494 38.3665C148.494 29.5745 154.99 23.8625 162.046 23.8625C170.558 23.8625 175.654 29.2945 175.654 38.1425C175.654 39.2065 175.542 40.3265 175.542 40.4385H155.83C155.998 44.0785 159.078 46.7105 162.774 46.7105C166.246 46.7105 168.15 44.9745 169.046 42.5105ZM178.047 44.5825L184.431 43.1825C184.599 45.3665 186.223 47.3825 189.471 47.3825C191.935 47.3825 193.111 46.0945 193.111 44.6385C193.111 43.4065 192.271 42.3985 190.143 41.9505L186.503 41.1105C181.183 39.9345 178.775 36.7425 178.775 32.8785C178.775 27.9505 183.143 23.8625 189.079 23.8625C196.919 23.8625 199.551 28.8465 199.887 31.8145L193.671 33.2145C193.447 31.5905 192.271 29.5185 189.135 29.5185C187.175 29.5185 185.607 30.6945 185.607 32.2625C185.607 33.6065 186.615 34.4465 188.127 34.7265L192.047 35.5665C197.479 36.6865 200.223 39.9905 200.223 44.0225C200.223 48.5025 196.751 53.0945 189.527 53.0945C181.239 53.0945 178.383 47.7185 178.047 44.5825ZM232.588 52.2545L229.284 43.1825H213.156L209.852 52.2545H201.676L216.908 12.5505H225.868L240.988 52.2545H232.588ZM221.22 21.1185L215.732 36.1265H226.708L221.22 21.1185ZM252.786 52.2545H244.946V12.5505H252.786V52.2545Z" fill="#1E1E1E"/>
</svg>
