<svg width="559" height="126" viewBox="0 0 559 126" fill="none" xmlns="http://www.w3.org/2000/svg">
<g clip-path="url(#clip0_168_2)">
<path fill-rule="evenodd" clip-rule="evenodd" d="M63 126C97.7939 126 126 97.7939 126 63C126 28.2061 97.7939 0 63 0C28.2061 0 0 28.2061 0 63C0 97.7939 28.2061 126 63 126ZM26.4949 36.3857L62.9999 99.6143L99.5048 36.3857C83.2804 36.3857 70.098 45.1675 62.9999 57.4619C55.9017 45.1675 42.7193 36.3857 26.4949 36.3857Z" fill="#1E1E1E"/>
</g>
<path d="M159.298 15.9545L182.15 87.7869H183.027L205.925 15.9545H228.084L195.491 110.5H169.732L137.093 15.9545H159.298ZM258.211 111.885C250.917 111.885 244.639 110.408 239.376 107.453C234.144 104.468 230.112 100.251 227.281 94.804C224.45 89.3258 223.034 82.8473 223.034 75.3686C223.034 68.0746 224.45 61.6731 227.281 56.1641C230.112 50.6551 234.098 46.3617 239.238 43.2841C244.408 40.2064 250.471 38.6676 257.427 38.6676C262.105 38.6676 266.46 39.4216 270.491 40.9297C274.554 42.407 278.093 44.6383 281.109 47.6236C284.156 50.6089 286.526 54.3636 288.219 58.8878C289.911 63.3812 290.758 68.6439 290.758 74.6761V80.0774H230.882V67.8899H272.245C272.245 65.0585 271.63 62.5502 270.399 60.3651C269.168 58.1799 267.46 56.4718 265.275 55.2408C263.12 53.9789 260.612 53.348 257.75 53.348C254.764 53.348 252.118 54.0405 249.809 55.4254C247.532 56.7796 245.747 58.6108 244.454 60.919C243.162 63.1965 242.5 65.7356 242.469 68.5362V80.1236C242.469 83.6321 243.116 86.6636 244.408 89.218C245.732 91.7725 247.594 93.7422 249.994 95.1271C252.395 96.5121 255.241 97.2045 258.535 97.2045C260.72 97.2045 262.72 96.8968 264.536 96.2812C266.352 95.6657 267.906 94.7424 269.199 93.5114C270.491 92.2803 271.476 90.7723 272.153 88.9872L290.342 90.1875C289.419 94.5578 287.526 98.3741 284.664 101.636C281.832 104.868 278.17 107.392 273.677 109.207C269.214 110.992 264.059 111.885 258.211 111.885ZM357.39 59.8111L339.386 60.919C339.078 59.3802 338.416 57.9953 337.401 56.7642C336.385 55.5024 335.046 54.5021 333.384 53.7635C331.753 52.9941 329.799 52.6094 327.521 52.6094C324.474 52.6094 321.905 53.2557 319.812 54.5483C317.719 55.8101 316.673 57.5028 316.673 59.6264C316.673 61.3191 317.35 62.7502 318.704 63.9197C320.058 65.0893 322.382 66.0279 325.675 66.7358L338.509 69.321C345.403 70.7367 350.542 73.0142 353.928 76.1534C357.313 79.2926 359.006 83.4167 359.006 88.5256C359.006 93.1728 357.636 97.2507 354.897 100.759C352.189 104.268 348.465 107.007 343.725 108.977C339.016 110.915 333.584 111.885 327.429 111.885C318.042 111.885 310.563 109.931 304.993 106.022C299.453 102.083 296.206 96.7275 295.252 89.9567L314.595 88.941C315.18 91.8033 316.596 93.9884 318.842 95.4964C321.089 96.9737 323.967 97.7124 327.475 97.7124C330.922 97.7124 333.692 97.0507 335.785 95.7273C337.908 94.3731 338.986 92.6342 339.016 90.5107C338.986 88.7256 338.232 87.2637 336.754 86.125C335.277 84.9555 333 84.063 329.922 83.4474L317.642 81.0007C310.717 79.6158 305.562 77.2152 302.177 73.799C298.822 70.3828 297.145 66.0279 297.145 60.7344C297.145 56.1794 298.376 52.2554 300.838 48.9624C303.331 45.6693 306.824 43.1302 311.318 41.3452C315.842 39.5601 321.135 38.6676 327.198 38.6676C336.154 38.6676 343.202 40.5604 348.342 44.3459C353.512 48.1314 356.528 53.2865 357.39 59.8111ZM403.906 39.5909V54.3636H361.204V39.5909H403.906ZM370.898 22.6023H390.564V88.7102C390.564 90.526 390.841 91.9418 391.395 92.9574C391.949 93.9422 392.719 94.6347 393.704 95.0348C394.719 95.4349 395.889 95.6349 397.212 95.6349C398.135 95.6349 399.059 95.558 399.982 95.4041C400.905 95.2195 401.613 95.081 402.106 94.9886L405.199 109.623C404.214 109.931 402.829 110.285 401.044 110.685C399.259 111.116 397.089 111.377 394.535 111.469C389.795 111.654 385.64 111.023 382.07 109.577C378.531 108.13 375.776 105.884 373.807 102.837C371.837 99.7898 370.867 95.9427 370.898 91.2955V22.6023ZM443.07 111.885C435.776 111.885 429.498 110.408 424.235 107.453C419.003 104.468 414.971 100.251 412.14 94.804C409.309 89.3258 407.893 82.8473 407.893 75.3686C407.893 68.0746 409.309 61.6731 412.14 56.1641C414.971 50.6551 418.957 46.3617 424.097 43.2841C429.267 40.2064 435.33 38.6676 442.286 38.6676C446.964 38.6676 451.319 39.4216 455.35 40.9297C459.413 42.407 462.952 44.6383 465.968 47.6236C469.015 50.6089 471.385 54.3636 473.078 58.8878C474.77 63.3812 475.617 68.6439 475.617 74.6761V80.0774H415.741V67.8899H457.104C457.104 65.0585 456.489 62.5502 455.258 60.3651C454.027 58.1799 452.319 56.4718 450.134 55.2408C447.979 53.9789 445.471 53.348 442.609 53.348C439.623 53.348 436.977 54.0405 434.668 55.4254C432.391 56.7796 430.606 58.6108 429.313 60.919C428.021 63.1965 427.359 65.7356 427.328 68.5362V80.1236C427.328 83.6321 427.975 86.6636 429.267 89.218C430.591 91.7725 432.452 93.7422 434.853 95.1271C437.254 96.5121 440.1 97.2045 443.394 97.2045C445.579 97.2045 447.579 96.8968 449.395 96.2812C451.211 95.6657 452.765 94.7424 454.058 93.5114C455.35 92.2803 456.335 90.7723 457.012 88.9872L475.201 90.1875C474.278 94.5578 472.385 98.3741 469.523 101.636C466.691 104.868 463.029 107.392 458.536 109.207C454.073 110.992 448.918 111.885 443.07 111.885ZM509.38 111.654C503.994 111.654 499.116 110.269 494.745 107.499C490.406 104.699 486.959 100.59 484.404 95.1733C481.881 89.7259 480.619 83.0473 480.619 75.1378C480.619 67.0128 481.927 60.2573 484.543 54.8714C487.159 49.4548 490.637 45.4077 494.976 42.7301C499.346 40.0218 504.132 38.6676 509.333 38.6676C513.304 38.6676 516.612 39.3447 519.259 40.6989C521.936 42.0223 524.091 43.6842 525.722 45.6847C527.384 47.6544 528.646 49.5933 529.507 51.5014H530.108V15.9545H549.728V110.5H530.338V99.1435H529.507C528.584 101.113 527.276 103.067 525.583 105.006C523.922 106.915 521.752 108.5 519.074 109.761C516.427 111.023 513.196 111.654 509.38 111.654ZM515.612 96.0043C518.782 96.0043 521.459 95.1425 523.645 93.419C525.86 91.6648 527.553 89.218 528.723 86.0788C529.923 82.9396 530.523 79.2618 530.523 75.0455C530.523 70.8291 529.938 67.1667 528.769 64.0582C527.599 60.9498 525.907 58.5492 523.691 56.8565C521.475 55.1638 518.782 54.3175 515.612 54.3175C512.38 54.3175 509.657 55.1946 507.441 56.9489C505.225 58.7031 503.547 61.1345 502.409 64.2429C501.27 67.3513 500.701 70.9522 500.701 75.0455C500.701 79.1695 501.27 82.8165 502.409 85.9865C503.578 89.1257 505.256 91.5878 507.441 93.3729C509.657 95.1271 512.38 96.0043 515.612 96.0043Z" fill="#1E1E1E"/>
<defs>
<clipPath id="clip0_168_2">
<rect width="126" height="126" rx="63" fill="white"/>
</clipPath>
</defs>
</svg>
