<svg width="796" height="91" viewBox="0 0 796 91" fill="none" xmlns="http://www.w3.org/2000/svg">
<rect x="54.8098" y="35.4919" width="11.1678" height="30.9346" transform="rotate(168.682 54.8098 35.4919)" fill="#1E1E1E"/>
<path d="M53.0095 26.5171L55.2013 37.6849L25.2062 37.6849L22.957 26.5171L53.0095 26.5171Z" fill="#1E1E1E"/>
<path d="M40.0209 54.6646L29.0703 56.8562L22.9995 26.5232L34.3919 26.5234L40.0209 54.6646Z" fill="#1E1E1E"/>
<path d="M38.2208 45.6896L40.4125 56.8574L8.16827 56.8574L38.2208 45.6896Z" fill="#1E1E1E"/>
<rect x="78.5149" y="53.5213" width="11.1678" height="30.9346" transform="rotate(168.682 78.5149 53.5213)" fill="#1E1E1E"/>
<path d="M76.7147 44.5465L78.9064 55.7143L48.9113 55.7143L46.6622 44.5465L76.7147 44.5465Z" fill="#1E1E1E"/>
<path d="M63.7261 72.694L52.7754 74.8856L46.7046 44.5526L58.0971 44.5528L63.7261 72.694Z" fill="#1E1E1E"/>
<path d="M61.9259 63.719L64.1176 74.8868L31.8734 74.8868L61.9259 63.719Z" fill="#1E1E1E"/>
<path d="M108.05 75.394L90.9859 15.7577H104.759L114.631 57.1945H115.126L126.016 15.7577H137.81L148.671 57.2818H149.195L159.067 15.7577H172.84L155.776 75.394H143.488L132.132 36.4033H131.666L120.338 75.394H108.05ZM190.835 76.2676C186.234 76.2676 182.274 75.3358 178.954 73.4722C175.654 71.5891 173.111 68.9296 171.325 65.4935C169.539 62.038 168.646 57.9516 168.646 53.2342C168.646 48.6334 169.539 44.5955 171.325 41.1206C173.111 37.6457 175.625 34.9376 178.867 32.9963C182.128 31.055 185.952 30.0844 190.34 30.0844C193.29 30.0844 196.037 30.56 198.58 31.5112C201.143 32.443 203.375 33.8505 205.278 35.7335C207.2 37.6166 208.694 39.985 209.762 42.8386C210.83 45.6729 211.364 48.9925 211.364 52.7975V56.2044H173.596V48.5169H199.687C199.687 46.7309 199.299 45.1488 198.522 43.7705C197.746 42.3921 196.668 41.3147 195.29 40.5382C193.931 39.7423 192.349 39.3443 190.543 39.3443C188.66 39.3443 186.991 39.7811 185.535 40.6547C184.098 41.5089 182.972 42.6639 182.157 44.1199C181.342 45.5564 180.924 47.158 180.905 48.9246V56.2335C180.905 58.4466 181.313 60.3588 182.128 61.97C182.963 63.5813 184.137 64.8237 185.651 65.6973C187.166 66.5709 188.961 67.0077 191.038 67.0077C192.417 67.0077 193.679 66.8136 194.824 66.4253C195.969 66.037 196.95 65.4546 197.765 64.6781C198.58 63.9016 199.202 62.9504 199.629 61.8244L211.102 62.5815C210.519 65.3382 209.325 67.7454 207.52 69.8031C205.734 71.8415 203.424 73.4333 200.59 74.5787C197.775 75.7046 194.523 76.2676 190.835 76.2676ZM215.592 75.394V15.7577H227.997V38.1796H228.375C228.919 36.976 229.705 35.7529 230.734 34.5105C231.782 33.2487 233.141 32.2004 234.811 31.3656C236.5 30.5115 238.596 30.0844 241.1 30.0844C244.362 30.0844 247.371 30.9386 250.127 32.6469C252.884 34.3358 255.087 36.8886 256.737 40.3053C258.388 43.7025 259.213 47.9636 259.213 53.0886C259.213 58.0778 258.407 62.2903 256.796 65.7264C255.204 69.1431 253.03 71.7347 250.273 73.5013C247.536 75.2484 244.469 76.122 241.071 76.122C238.664 76.122 236.616 75.7241 234.927 74.9281C233.258 74.1322 231.889 73.1324 230.821 71.9288C229.754 70.7058 228.938 69.4731 228.375 68.2307H227.822V75.394H215.592ZM227.735 53.0304C227.735 55.69 228.103 58.0098 228.841 59.9899C229.579 61.97 230.647 63.5134 232.044 64.6199C233.442 65.707 235.141 66.2506 237.14 66.2506C239.159 66.2506 240.867 65.6973 242.265 64.5908C243.663 63.4648 244.721 61.9118 245.439 59.9317C246.177 57.9322 246.546 55.6317 246.546 53.0304C246.546 50.4485 246.187 48.1772 245.468 46.2165C244.75 44.2558 243.692 42.7222 242.294 41.6156C240.897 40.5091 239.179 39.9558 237.14 39.9558C235.121 39.9558 233.413 40.4897 232.015 41.5574C230.637 42.6251 229.579 44.1393 228.841 46.1C228.103 48.0607 227.735 50.3708 227.735 53.0304ZM285.317 76.2094C280.968 76.2094 277.095 75.462 273.698 73.9672C270.32 72.453 267.651 70.3758 265.69 67.7357C263.749 65.0761 262.749 62.0089 262.691 58.534H275.387C275.465 59.9899 275.94 61.2712 276.814 62.3777C277.707 63.4648 278.891 64.3093 280.366 64.9111C281.842 65.5129 283.502 65.8138 285.346 65.8138C287.268 65.8138 288.966 65.4741 290.442 64.7946C291.917 64.1152 293.072 63.1736 293.907 61.97C294.742 60.7664 295.159 59.3784 295.159 57.806C295.159 56.2141 294.712 54.8067 293.819 53.5837C292.946 52.3412 291.684 51.3706 290.034 50.6717C288.403 49.9729 286.462 49.6234 284.21 49.6234H278.648V40.3635H284.21C286.113 40.3635 287.792 40.0335 289.248 39.3734C290.723 38.7134 291.868 37.801 292.684 36.6362C293.499 35.452 293.907 34.0737 293.907 32.5013C293.907 31.0065 293.548 29.6961 292.829 28.5702C292.131 27.4248 291.14 26.5318 289.859 25.8912C288.597 25.2506 287.122 24.9303 285.433 24.9303C283.725 24.9303 282.162 25.2409 280.745 25.8621C279.328 26.4639 278.192 27.3278 277.338 28.4537C276.484 29.5796 276.028 30.8997 275.969 32.4139H263.885C263.943 28.9778 264.923 25.9494 266.826 23.3287C268.728 20.708 271.291 18.6599 274.513 17.1845C277.755 15.6897 281.415 14.9423 285.491 14.9423C289.607 14.9423 293.208 15.6897 296.295 17.1845C299.381 18.6793 301.779 20.6983 303.487 23.2413C305.215 25.765 306.069 28.5993 306.05 31.7442C306.069 35.0832 305.03 37.8689 302.934 40.1014C300.857 42.3339 298.149 43.7511 294.81 44.3528V44.8188C299.197 45.3817 302.536 46.9056 304.827 49.3905C307.137 51.8559 308.282 54.9426 308.263 58.6504C308.282 62.0477 307.302 65.0664 305.322 67.7065C303.361 70.3467 300.653 72.4239 297.197 73.9381C293.742 75.4523 289.782 76.2094 285.317 76.2094ZM338.733 75.394H325.222L345.809 15.7577H362.058L382.616 75.394H369.105L354.166 29.3855H353.7L338.733 75.394ZM337.889 51.953H369.803V61.7953H337.889V51.953ZM403.588 76.2676C399.006 76.2676 395.065 75.297 391.765 73.3557C388.484 71.395 385.961 68.6772 384.194 65.2023C382.447 61.7274 381.573 57.7283 381.573 53.2051C381.573 48.6237 382.457 44.6052 384.223 41.1497C386.009 37.6748 388.543 34.9667 391.823 33.0254C395.104 31.0647 399.006 30.0844 403.529 30.0844C407.431 30.0844 410.848 30.793 413.779 32.2101C416.711 33.6272 419.031 35.6171 420.739 38.1796C422.447 40.7421 423.389 43.751 423.563 47.2065H411.858C411.528 44.9741 410.654 43.1784 409.237 41.8195C407.839 40.4412 406.005 39.752 403.733 39.752C401.811 39.752 400.132 40.2761 398.696 41.3244C397.278 42.3533 396.172 43.8578 395.376 45.8379C394.58 47.818 394.182 50.2155 394.182 53.0304C394.182 55.8841 394.57 58.3107 395.347 60.3102C396.143 62.3098 397.259 63.8337 398.696 64.882C400.132 65.9303 401.811 66.4544 403.733 66.4544C405.15 66.4544 406.422 66.1632 407.548 65.5808C408.693 64.9984 409.635 64.154 410.372 63.0475C411.13 61.9215 411.625 60.5723 411.858 58.9999H423.563C423.369 62.4165 422.438 65.4255 420.768 68.0269C419.118 70.6088 416.837 72.6277 413.925 74.0837C411.013 75.5396 407.567 76.2676 403.588 76.2676ZM447.615 76.2676C443.033 76.2676 439.092 75.297 435.792 73.3557C432.511 71.395 429.988 68.6772 428.221 65.2023C426.474 61.7274 425.6 57.7283 425.6 53.2051C425.6 48.6237 426.484 44.6052 428.25 41.1497C430.036 37.6748 432.57 34.9667 435.85 33.0254C439.131 31.0647 443.033 30.0844 447.556 30.0844C451.458 30.0844 454.875 30.793 457.806 32.2101C460.738 33.6272 463.058 35.6171 464.766 38.1796C466.474 40.7421 467.416 43.751 467.59 47.2065H455.884C455.554 44.9741 454.681 43.1784 453.264 41.8195C451.866 40.4412 450.031 39.752 447.76 39.752C445.838 39.752 444.159 40.2761 442.723 41.3244C441.305 42.3533 440.199 43.8578 439.403 45.8379C438.607 47.818 438.209 50.2155 438.209 53.0304C438.209 55.8841 438.597 58.3107 439.374 60.3102C440.17 62.3098 441.286 63.8337 442.723 64.882C444.159 65.9303 445.838 66.4544 447.76 66.4544C449.177 66.4544 450.449 66.1632 451.575 65.5808C452.72 64.9984 453.662 64.154 454.399 63.0475C455.156 61.9215 455.652 60.5723 455.884 58.9999H467.59C467.396 62.4165 466.464 65.4255 464.795 68.0269C463.145 70.6088 460.864 72.6277 457.952 74.0837C455.04 75.5396 451.594 76.2676 447.615 76.2676ZM491.816 76.2676C487.215 76.2676 483.255 75.3358 479.936 73.4722C476.635 71.5891 474.092 68.9296 472.306 65.4935C470.52 62.038 469.627 57.9516 469.627 53.2342C469.627 48.6334 470.52 44.5955 472.306 41.1206C474.092 37.6457 476.606 34.9376 479.848 32.9963C483.11 31.055 486.934 30.0844 491.321 30.0844C494.272 30.0844 497.019 30.56 499.562 31.5112C502.125 32.443 504.357 33.8505 506.259 35.7335C508.181 37.6166 509.676 39.985 510.744 42.8386C511.812 45.6729 512.345 48.9925 512.345 52.7975V56.2044H474.578V48.5169H500.669C500.669 46.7309 500.28 45.1488 499.504 43.7705C498.727 42.3921 497.65 41.3147 496.272 40.5382C494.913 39.7423 493.33 39.3443 491.525 39.3443C489.642 39.3443 487.973 39.7811 486.517 40.6547C485.08 41.5089 483.954 42.6639 483.139 44.1199C482.323 45.5564 481.906 47.158 481.887 48.9246V56.2335C481.887 58.4466 482.294 60.3588 483.11 61.97C483.944 63.5813 485.119 64.8237 486.633 65.6973C488.147 66.5709 489.943 67.0077 492.02 67.0077C493.398 67.0077 494.66 66.8136 495.806 66.4253C496.951 66.037 497.931 65.4546 498.747 64.6781C499.562 63.9016 500.183 62.9504 500.61 61.8244L512.083 62.5815C511.501 65.3382 510.307 67.7454 508.502 69.8031C506.716 71.8415 504.406 73.4333 501.571 74.5787C498.756 75.7046 495.505 76.2676 491.816 76.2676ZM528.745 15.7577V75.394H516.341V15.7577H528.745ZM554.966 76.2676C550.365 76.2676 546.405 75.3358 543.085 73.4722C539.785 71.5891 537.242 68.9296 535.456 65.4935C533.67 62.038 532.777 57.9516 532.777 53.2342C532.777 48.6334 533.67 44.5955 535.456 41.1206C537.242 37.6457 539.756 34.9376 542.998 32.9963C546.259 31.055 550.084 30.0844 554.471 30.0844C557.422 30.0844 560.169 30.56 562.712 31.5112C565.274 32.443 567.507 33.8505 569.409 35.7335C571.331 37.6166 572.826 39.985 573.893 42.8386C574.961 45.6729 575.495 48.9925 575.495 52.7975V56.2044H537.727V48.5169H563.818C563.818 46.7309 563.43 45.1488 562.653 43.7705C561.877 42.3921 560.799 41.3147 559.421 40.5382C558.062 39.7423 556.48 39.3443 554.675 39.3443C552.792 39.3443 551.122 39.7811 549.666 40.6547C548.23 41.5089 547.104 42.6639 546.288 44.1199C545.473 45.5564 545.056 47.158 545.036 48.9246V56.2335C545.036 58.4466 545.444 60.3588 546.259 61.97C547.094 63.5813 548.268 64.8237 549.783 65.6973C551.297 66.5709 553.093 67.0077 555.17 67.0077C556.548 67.0077 557.81 66.8136 558.955 66.4253C560.101 66.037 561.081 65.4546 561.896 64.6781C562.712 63.9016 563.333 62.9504 563.76 61.8244L575.233 62.5815C574.651 65.3382 573.457 67.7454 571.651 69.8031C569.865 71.8415 567.555 73.4333 564.721 74.5787C561.906 75.7046 558.654 76.2676 554.966 76.2676ZM579.49 75.394V30.6668H591.516V38.4707H591.982C592.798 35.6947 594.166 33.5981 596.088 32.181C598.01 30.7444 600.223 30.0261 602.727 30.0261C603.349 30.0261 604.018 30.065 604.737 30.1426C605.455 30.2203 606.086 30.327 606.629 30.4629V41.47C606.047 41.2953 605.241 41.14 604.212 41.0041C603.184 40.8682 602.242 40.8003 601.388 40.8003C599.563 40.8003 597.932 41.1983 596.496 41.9942C595.079 42.7707 593.953 43.8578 593.118 45.2555C592.303 46.6533 591.895 48.2645 591.895 50.0894V75.394H579.49ZM620.416 76.2385C617.562 76.2385 615.019 75.7435 612.787 74.7534C610.554 73.7439 608.788 72.2589 607.487 70.2982C606.206 68.318 605.565 65.8526 605.565 62.9019C605.565 60.417 606.021 58.3301 606.934 56.6412C607.846 54.9523 609.088 53.5934 610.661 52.5645C612.233 51.5356 614.019 50.7591 616.019 50.235C618.038 49.7108 620.154 49.342 622.367 49.1284C624.968 48.8566 627.065 48.6043 628.657 48.3713C630.249 48.1189 631.404 47.7501 632.122 47.2648C632.84 46.7795 633.199 46.0612 633.199 45.11V44.9352C633.199 43.091 632.617 41.6642 631.452 40.6547C630.307 39.6452 628.676 39.1405 626.56 39.1405C624.328 39.1405 622.551 39.6355 621.231 40.6256C619.911 41.5962 619.038 42.8192 618.61 44.2946L607.137 43.3628C607.72 40.645 608.865 38.296 610.574 36.3159C612.282 34.3164 614.485 32.7828 617.184 31.7151C619.901 30.6279 623.046 30.0844 626.618 30.0844C629.103 30.0844 631.481 30.3756 633.753 30.958C636.043 31.5403 638.072 32.443 639.838 33.6661C641.624 34.8891 643.032 36.4615 644.061 38.3834C645.09 40.2859 645.604 42.5669 645.604 45.2264V75.394H633.84V69.1916H633.49C632.772 70.5894 631.811 71.8221 630.608 72.8898C629.404 73.9381 627.958 74.7631 626.269 75.3649C624.58 75.9473 622.629 76.2385 620.416 76.2385ZM623.968 67.6774C625.793 67.6774 627.405 67.3183 628.802 66.6C630.2 65.8623 631.297 64.8723 632.093 63.6298C632.889 62.3874 633.287 60.98 633.287 59.4075V54.6611C632.898 54.9135 632.365 55.1464 631.685 55.36C631.025 55.5541 630.278 55.7385 629.443 55.9132C628.608 56.0685 627.773 56.2141 626.939 56.35C626.104 56.4665 625.347 56.5733 624.667 56.6703C623.211 56.8839 621.94 57.2236 620.853 57.6895C619.766 58.1554 618.921 58.7863 618.319 59.5823C617.718 60.3588 617.417 61.3294 617.417 62.4942C617.417 64.1831 618.028 65.4741 619.251 66.3671C620.494 67.2406 622.066 67.6774 623.968 67.6774ZM674.919 30.6668V39.985H647.983V30.6668H674.919ZM654.098 19.9509H666.503V61.6497C666.503 62.7951 666.678 63.6881 667.027 64.3287C667.377 64.9499 667.862 65.3867 668.483 65.6391C669.124 65.8914 669.861 66.0176 670.696 66.0176C671.279 66.0176 671.861 65.9691 672.443 65.872C673.026 65.7555 673.472 65.6682 673.783 65.61L675.734 74.8408C675.113 75.0349 674.239 75.2582 673.113 75.5105C671.987 75.7823 670.619 75.9473 669.007 76.0055C666.018 76.122 663.397 75.7241 661.145 74.8117C658.913 73.8993 657.175 72.4821 655.933 70.5602C654.69 68.6384 654.079 66.2118 654.098 63.2804V19.9509ZM698.627 76.2676C694.104 76.2676 690.193 75.3067 686.892 73.3848C683.612 71.4435 681.078 68.7451 679.292 65.2896C677.506 61.8147 676.613 57.7866 676.613 53.2051C676.613 48.5849 677.506 44.547 679.292 41.0915C681.078 37.6166 683.612 34.9182 686.892 32.9963C690.193 31.055 694.104 30.0844 698.627 30.0844C703.151 30.0844 707.053 31.055 710.333 32.9963C713.634 34.9182 716.177 37.6166 717.963 41.0915C719.749 44.547 720.642 48.5849 720.642 53.2051C720.642 57.7866 719.749 61.8147 717.963 65.2896C716.177 68.7451 713.634 71.4435 710.333 73.3848C707.053 75.3067 703.151 76.2676 698.627 76.2676ZM698.686 66.6582C700.743 66.6582 702.462 66.0759 703.84 64.9111C705.218 63.7269 706.257 62.1156 706.956 60.0773C707.674 58.0389 708.033 55.7191 708.033 53.1178C708.033 50.5164 707.674 48.1966 706.956 46.1582C706.257 44.1199 705.218 42.5086 703.84 41.3244C702.462 40.1403 700.743 39.5482 698.686 39.5482C696.609 39.5482 694.861 40.1403 693.444 41.3244C692.046 42.5086 690.988 44.1199 690.27 46.1582C689.571 48.1966 689.222 50.5164 689.222 53.1178C689.222 55.7191 689.571 58.0389 690.27 60.0773C690.988 62.1156 692.046 63.7269 693.444 64.9111C694.861 66.0759 696.609 66.6582 698.686 66.6582ZM724.608 75.394V30.6668H736.634V38.4707H737.1C737.915 35.6947 739.284 33.5981 741.206 32.181C743.128 30.7444 745.341 30.0261 747.845 30.0261C748.466 30.0261 749.136 30.065 749.854 30.1426C750.572 30.2203 751.203 30.327 751.747 30.4629V41.47C751.165 41.2953 750.359 41.14 749.33 41.0041C748.301 40.8682 747.36 40.8003 746.505 40.8003C744.681 40.8003 743.05 41.1983 741.613 41.9942C740.196 42.7707 739.07 43.8578 738.236 45.2555C737.42 46.6533 737.013 48.2645 737.013 50.0894V75.394H724.608ZM791.275 43.421L779.918 44.1199C779.724 43.1492 779.307 42.2757 778.666 41.4992C778.026 40.7032 777.181 40.0723 776.133 39.6064C775.104 39.1211 773.871 38.8784 772.435 38.8784C770.513 38.8784 768.892 39.2861 767.572 40.1014C766.252 40.8974 765.592 41.9651 765.592 43.3046C765.592 44.3723 766.019 45.275 766.873 46.0127C767.727 46.7503 769.193 47.3424 771.27 47.7889L779.365 49.4196C783.714 50.3126 786.956 51.7492 789.091 53.7293C791.226 55.7094 792.294 58.3107 792.294 61.5332C792.294 64.4646 791.43 67.0368 789.703 69.2499C787.994 71.4629 785.645 73.1907 782.656 74.4331C779.685 75.6561 776.259 76.2676 772.377 76.2676C766.456 76.2676 761.738 75.0349 758.225 72.5695C754.73 70.0846 752.682 66.7068 752.08 62.4359L764.281 61.7953C764.65 63.6007 765.543 64.979 766.96 65.9303C768.377 66.8621 770.193 67.328 772.406 67.328C774.58 67.328 776.327 66.9106 777.647 66.0759C778.987 65.2217 779.666 64.1249 779.686 62.7854C779.666 61.6594 779.19 60.7373 778.259 60.019C777.327 59.2814 775.89 58.7184 773.949 58.3301L766.203 56.7868C761.835 55.9132 758.584 54.399 756.448 52.2442C754.332 50.0894 753.274 47.3424 753.274 44.0034C753.274 41.1303 754.051 38.6552 755.604 36.578C757.176 34.5008 759.38 32.8993 762.214 31.7733C765.068 30.6474 768.407 30.0844 772.231 30.0844C777.88 30.0844 782.326 31.2783 785.568 33.6661C788.829 36.0538 790.731 39.3055 791.275 43.421Z" fill="#1E1E1E"/>
</svg>
